<?xml version="1.0" encoding="UTF-8"?>
<svg id="_Слой_2" data-name="Слой 2" xmlns="http://www.w3.org/2000/svg" viewBox="0 0 1874.85 354.98">
  <defs>
    <style>
      .cls-1 {
        fill: #EA4D5B;
        stroke-width: 0px;
      }
    </style>
  </defs>
  <g id="_Слой_1-2" data-name="Слой 1">
    <g>
      <g>
        <path class="cls-1" d="M529.88,218.81c0,22.09-7.81,40.5-23.43,55.22-15.62,14.72-35.08,22.08-58.37,22.08h-53.57v-154.59h55.97c22.29,0,41.1,7.46,56.42,22.38,15.32,14.92,22.98,33.23,22.98,54.92ZM487.82,218.81c0-13.62-3.85-24.23-11.56-31.84-7.71-7.61-18.41-11.41-32.09-11.41h-9.51v86.51h8.61c13.95,0,24.86-3.8,32.74-11.41,7.87-7.61,11.81-18.22,11.81-31.84Z"/>
        <path class="cls-1" d="M627,225.52c-3.2-2.4-8.51-3.6-15.92-3.6-17.22,0-25.83,9.91-25.83,29.74v44.46h-37.35v-105.23h37.35v17.42c7.34-12.55,18.32-18.82,32.94-18.82h8.81v36.04Z"/>
        <path class="cls-1" d="M751.85,296.11h-36.75v-12.72h-.6c-7.41,10.81-18.26,16.22-32.54,16.22-15.02,0-27.6-5.39-37.75-16.17-10.15-10.78-15.22-24.05-15.22-39.8s4.92-29.55,14.77-40.2c9.85-10.65,22.34-15.97,37.5-15.97s25.43,4.64,32.84,13.92v-10.51h37.75v105.23ZM715.11,243.64c0-7.01-2.27-12.73-6.81-17.17-4.54-4.44-10.18-6.66-16.92-6.66-7.14,0-12.93,2.22-17.37,6.66-4.44,4.44-6.66,10.3-6.66,17.57,0,6.67,2.24,12.2,6.71,16.57,4.47,4.37,10.18,6.56,17.12,6.56s12.83-2.19,17.27-6.56c4.44-4.37,6.66-10.03,6.66-16.97Z"/>
        <path class="cls-1" d="M891.93,291.2c0,20.49-5.17,36.25-15.52,47.26-10.35,11.01-25.33,16.52-44.96,16.52-16.42,0-30.47-4.04-42.15-12.12-11.28-7.81-17.39-17.19-18.32-28.14l41.75-5.11c.4,4.41,2.17,8.04,5.31,10.91,3.34,3.14,7.61,4.71,12.82,4.71,15.82,0,23.73-10.25,23.73-30.74v-11.11c-9.08,9.88-20.16,14.82-33.24,14.82-15.56,0-28.15-5.04-37.8-15.13-9.65-10.09-14.47-23.22-14.47-39.39s5.14-29.41,15.42-40.13c10.28-10.72,23.19-16.09,38.75-16.09,13.02,0,23.46,4.71,31.34,14.12v-10.71h37.35v100.32ZM855.58,243.3c0-7.29-2.22-13.16-6.66-17.61-4.44-4.45-10.2-6.67-17.27-6.67h-.8c-6.67,0-12.22,2.26-16.62,6.77-4.41,4.52-6.61,10.22-6.61,17.11s2.2,12.79,6.61,17.11c4.41,4.32,10.28,6.47,17.62,6.47s12.8-2.14,17.17-6.42c4.37-4.28,6.56-9.87,6.56-16.76Z"/>
        <path class="cls-1" d="M1034.1,243.64c0,16.49-5.92,29.94-17.77,40.35-11.85,10.41-27.05,15.62-45.61,15.62s-34.04-5.21-45.86-15.62c-11.81-10.41-17.72-23.86-17.72-40.35s5.89-30.22,17.67-40.6c11.78-10.38,27.08-15.57,45.91-15.57s33.84,5.21,45.66,15.62c11.81,10.41,17.72,23.93,17.72,40.55ZM994.75,243.64c0-6.94-2.25-12.65-6.76-17.12-4.51-4.47-10.26-6.71-17.27-6.71s-12.8,2.24-17.37,6.71c-4.57,4.47-6.86,10.18-6.86,17.12s2.29,12.52,6.86,16.92c4.57,4.41,10.36,6.61,17.37,6.61s12.77-2.2,17.27-6.61c4.51-4.41,6.76-10.05,6.76-16.92Z"/>
        <path class="cls-1" d="M1161.66,296.11h-37.35v-58.27c0-13.75-5.61-20.63-16.82-20.63-12.68,0-19.02,8.24-19.02,24.73v54.17h-37.35v-105.23h37.35v13.12c7.54-11.01,18.69-16.52,33.44-16.52,12.95,0,22.81,3.8,29.59,11.41,6.77,7.61,10.16,18.49,10.16,32.64v64.58Z"/>
        <path class="cls-1" d="M1411.47,209.8c0,30.77-7.61,53.9-22.83,69.39-13.82,14.02-32.94,21.03-57.37,21.03s-44.22-7.47-59.17-22.43c-14.95-14.95-22.43-34.61-22.43-58.97s7.74-43.44,23.23-58.62c15.48-15.18,35.38-22.78,59.67-22.78,16.35,0,30.79,3.75,43.3,11.26,12.52,7.51,21.64,17.84,27.38,30.99l-38.15,15.92c-7.14-16.35-18.56-24.53-34.24-24.53-11.08,0-20.41,4.61-27.98,13.82-7.58,9.21-11.36,20.53-11.36,33.94,0,14.35,3.79,26.17,11.36,35.44,7.57,9.28,17.17,13.92,28.79,13.92,9.34,0,17.09-2.44,23.23-7.31,6.41-5.01,9.61-11.51,9.61-19.52h-32.64v-31.54h79.6Z"/>
        <path class="cls-1" d="M1544.74,296.11h-36.75v-12.72h-.6c-7.41,10.81-18.26,16.22-32.54,16.22-15.02,0-27.6-5.39-37.75-16.17-10.15-10.78-15.22-24.05-15.22-39.8s4.92-29.55,14.77-40.2c9.85-10.65,22.34-15.97,37.5-15.97s25.43,4.64,32.84,13.92v-10.51h37.75v105.23ZM1507.99,243.64c0-7.01-2.27-12.73-6.81-17.17-4.54-4.44-10.18-6.66-16.92-6.66-7.14,0-12.93,2.22-17.37,6.66-4.44,4.44-6.66,10.3-6.66,17.57,0,6.67,2.24,12.2,6.71,16.57,4.47,4.37,10.18,6.56,17.12,6.56s12.83-2.19,17.27-6.56c4.44-4.37,6.66-10.03,6.66-16.97Z"/>
        <path class="cls-1" d="M1742.48,296.11h-37.35v-58.27c0-13.75-4.36-20.63-13.08-20.63-4.79,0-8.81,1.84-12.07,5.51-3.66,4.14-5.49,9.81-5.49,17.02v56.37h-37.35v-58.27c0-13.75-4.64-20.63-13.92-20.63-11.21,0-16.82,8.24-16.82,24.73v54.17h-37.35v-105.23h37.35v13.12c7.87-11.01,17.92-16.52,30.14-16.52,17.15,0,29.37,6.61,36.65,19.82,7.54-13.22,18.82-19.82,33.84-19.82,23.63,0,35.44,14.68,35.44,44.05v64.58Z"/>
        <path class="cls-1" d="M1874.85,249.75h-78.9c0,6.21,1.6,11.41,4.81,15.62,3.94,5.21,9.71,7.81,17.32,7.81,9.34,0,15.75-3.24,19.22-9.71l33.24,8.01c-4.34,9.08-11.25,16.09-20.73,21.03-9.15,4.74-19.79,7.11-31.94,7.11-17.36,0-31.51-5.21-42.45-15.62-10.95-10.41-16.42-23.86-16.42-40.35s5.31-30.47,15.92-40.75c10.61-10.28,24.59-15.42,41.95-15.42,18.62,0,33.07,5.44,43.35,16.32,9.75,10.28,14.62,24.1,14.62,41.45v4.51ZM1840.01,228.23c-.87-4.61-3.27-8.53-7.21-11.76-3.94-3.24-8.58-4.86-13.92-4.86-11.55,0-18.86,5.54-21.93,16.62h43.05Z"/>
      </g>
      <g>
        <g>
          <path class="cls-1" d="M195.85,69.05c-3.16,7.97-5.1,16.43-7.59,24.72-7.28-4.53-10.18-10.56-8.34-19.79.88-4.36,2.52-8.58,3.66-12.91,1.01-3.91,2.13-7.85,2.61-11.85.45-3.67.1-7.47.1-11.12,10.73,6.94,14.2,19.23,9.56,30.95Z"/>
          <path class="cls-1" d="M179.92,73.98c.88-4.36,2.52-8.58,3.66-12.91,1.01-3.91,2.13-7.85,2.61-11.85.45-3.67.1-7.47.1-11.12,10.73,6.94,14.2,19.23,9.56,30.95-3.16,7.97-5.1,16.43-7.59,24.72-7.28-4.53-10.18-10.56-8.34-19.79Z"/>
          <path class="cls-1" d="M177.92,207.9s-6.84-12.39-14.9-18.6l20.34,13.64-5.44,4.96Z"/>
          <path class="cls-1" d="M255.95,213.54c-1.79,21.42-12.93,38.16-27.16,53.26-4.85,5.15-9.97,10.02-14.82,15.15-1.73,1.85-3.24,4.01-4.38,6.29-3.5,6.95-.03,11.99,7.77,11.37,2.51-.2,4.96-1.06,7.44-1.6-2.54,15.49-19.31,27.46-42.64,30.02-6.6,1.34-13.1,2.48-19.48,3.39-3.64-1.28-6.49-2.34-7.49-2.88-4.3,1.8-10.11,3.9-17.03,5.5-9.34.62-18.31.74-26.88.4,9.02-1.26,22.7-4.13,35.65-10.97-2.7-1.88-5.01-3.79-7.09-5.64l-.03-.03c-11.87.66-32.52-.28-52-11.16,2.28.71,22.9,6.92,45.48,3.82-2.25-3.14-3.81-6.27-4.78-9.32-11.99-2.25-30.13-7.77-45.57-21.27,1.48.82,20.9,11.73,44.23,13.3-.12-3.99.77-7.58,2.39-10.68-11.13-4.5-29.42-14.1-42.35-32.21,1.25,1.17,21.73,19.91,48.36,25.03-3.87-14.35-7.6-29.28-11.11-44.74-2.22-9.94-4.3-19.74-6.21-29.33,1.57,6.09,4.05,14.26,8.09,23.55,5.95,13.64,11.17,25.52,22.19,36.17,11.08,10.68,19.19,11.59,25.37,23.64,2.88,5.55,3.91,10.73,4.33,14.09,17.77-3.67,34.83-31.1,34.83-31.1l-9.96-.05,1.65-10.46-12.22,1.37-.63-9.05-11.67,4.5c-2.94,1.16-6.3,0-7.95-2.68l-15.52-25.49,23.47-1.62c2.7-.18,5.21,1.33,6.29,3.81l.34.74c.91,2.11.6,4.59-.82,6.44l-6.21,8,21.98-3.9.55,7.2,6.83-2.05,1.14,9.6,7.55-4.13,1.11,11.76,15.12-18.68c1.77-2.16,1.28-5.32-1.03-6.92l-36.28-24.72c-4.13-2.82-6.92-7.15-7.8-12.07-1.03-5.79-4.76-10.74-10.05-13.36l-6.13-2.99h-.01c-11.8-17.81-25.73-40.74-26.16-41.45l6.16,20c2.17,5.73,4.36,10.66,6.4,14.81l-12.28-5.98c-6.89-5.72-14.75-13.24-22.41-22.95-4.76-6.04-8.6-11.88-11.76-17.23,2.39,5.92,4.7,12.53,6.72,19.85,2.85,10.31,4.53,19.85,5.52,28.28-2.7-1.51-6.06-3.16-10.02-4.7-8.49-3.28-19.34-7.46-31.58-4.45-3.65.92-9.97,3.08-16.61,8.98,4.53-1.4,14.73-3.88,26.89-.69,7.83,2.05,13.52,5.67,16.94,8.26-7.23-.4-17.97-.17-30.36,3.31-14.52,4.07-25.03,10.87-31.21,15.6,5.38-1.56,14.21-3.24,24.66-1.34,3.96.74,7.41,1.86,10.28,3.02-4.55-.54-14.92-1.14-26.03,4.25-17.06,8.26-22.9,24.35-24.06,27.71,2.93-2.74,10.99-9.52,22.84-10.34,3.9-.29,7.32.14,10.08.77.34.05.68.14,1.03.23-.55.25-1.09.51-1.66.76-9.65,4.5-19.53,9.29-29.56,14.36-2.42,1.22-4.81,2.45-7.18,3.67-7.09-9.97-15.74-18.88-22.15-29.27-11.34-18.35-9.12-39.76,4.3-54.17.82,3.73,1.28,7.49,2.53,10.99,1.71,4.78,4.5,8.91,10.11,9.68,5.58.77,9.4-2.33,12.42-6.46,6.15-8.46,8.26-18.31,8.63-28.48.26-7.24-.12-14.58-.94-21.79-2.31-20.68,6.09-36.05,23.21-48.22-1.03,5.73-2.28,10.77-2.85,15.87-1.42,13.07,3.62,22.13,13.02,24.01,9.85,1.93,21.16-6.21,24.18-17.75.91-3.47,1.56-7.26,1.16-10.76-1.87-16.29,4.76-28.91,15.44-40.56,9.37-10.19,11.71-17.23,12.5-19.76,2.2-7.07,2.37-17.03-4.47-30.9,24.1,5.69,41.38,29.99,39.48,55.02-.35,4.44-.83,9-2.03,13.3-3.61,12.93.12,23.78,9.32,32.81,7.66,7.49,15.69,14.55,23.86,21.47,13.47,11.37,19.05,25.89,18.4,43.24-.2,5.35-.4,10.73,0,16.06.6,7.8,5.04,13.53,10.57,14.52,5.21.91,11.3-2.82,14.35-9.77,2.11-4.78,3.13-10.05,4.9-16.03,7.94,13.61,11.85,27.63,10.56,42.92Z"/>
        </g>
        <path class="cls-1" d="M66.82,228.55c-.23.34-.43.65-.63.99.57-.25,1.11-.51,1.66-.76-.35-.09-.69-.18-1.03-.23Z"/>
      </g>
    </g>
  </g>
</svg>